<?xml version="1.0" encoding="UTF-8"?><svg id="a" xmlns="http://www.w3.org/2000/svg" viewBox="0 0 841.88983 198.4252"><path d="m28.79723,125.55717l-11.87746,3.85838c-.47061-1.34472-.93254-2.78815-1.39921-4.37617l60.00161-19.49581c.36323,1.54696.86305,3.06432,1.4908,4.53242l-44.52507,25.77239-3.69068-10.29121Zm-4.20867-13.11716l50.31535-10.75324c-.15082-1.6357-.15477-3.14486-.015-4.77078H11.8133c-.05211,1.52564-.05211,3.06599,0,4.5949h12.44835l.3269,10.92912Zm54.20975,1.10961l-51.0497,37.08962c.80699,1.1639,1.68979,2.3656,2.72024,3.70055l10.07476-7.31573,6.68729,8.64732,34.38398-38.27158c-1.04704-1.2017-1.99142-2.49056-2.81657-3.85019Zm-47.11423-49.39297l47.02421,20.87349c.81726-1.36782,1.75375-2.66329,2.79288-3.86825L30.46886,44.08551c-1.03519,1.34314-1.91799,2.54652-2.72024,3.70223l10.09371,7.33369-6.15824,9.03522Zm59.89107,9.6304c1.46869-.62804,2.98713-1.12777,4.53242-1.48942l-19.49571-60.00151c-1.60451.47348-3.04793.93373-4.37607,1.39901l3.85966,11.87766-10.29269,3.6891,25.77239,44.52517Zm-7.1887,46.36311l-37.07501,51.03203c1.33998,1.03243,2.54179,1.9169,3.70095,2.72083l7.33399-10.094,9.03325,6.15992,20.87517-47.0256c-1.37157-.82041-2.66655-1.75582-3.86835-2.79318Zm-.13345-41.75834c1.19706-1.04556,2.4873-1.99083,3.84861-2.81776L51.01397,24.52396c-1.15916.80383-2.3807,1.70143-3.70411,2.72073l7.31898,10.07258-8.6487,6.68926,38.27286,34.38527Zm-59.93923,9.34426l51.16735,5.32154c.35375-1.54864.84331-3.07093,1.46159-4.54229l-60.02293-19.50242c-.47061,1.34314-.93254,2.78657-1.39921,4.37459l11.85772,3.85354-3.06451,10.49503Zm80.42196-16.07142V8.58895c-.76356-.02793-1.52791-.05261-2.297-.05261-.77067,0-1.53502.02468-2.29779.05261v12.44973l-10.92991.32552,10.75383,50.31357c.85279-.07561,1.66847-.11341,2.47388-.11341.75488,0,1.51291.03287,2.297.10028Zm-32.49995,113.06711c1.34156.47022,2.78499.93047,4.37607,1.39901l3.85334-11.85791,10.49562,3.06599,5.32125-51.16843c-1.54844-.35345-3.07083-.84341-4.54426-1.46149l-19.50202,60.02283Zm48.25365-106.45671l37.0758-51.03035c-1.33525-1.02917-2.53784-1.91354-3.70174-2.72073l-7.3332,10.0939-9.03404-6.15834-20.87517,47.02244c1.36841.81874,2.66339,1.75414,3.86835,2.79308Zm51.89933-15.69655l-44.52586,25.77239c.62775,1.4681,1.12758,2.98545,1.4908,4.53242l60.0024-19.49581c-.46824-1.59128-.93017-3.03471-1.4-4.37459l-11.87825,3.86006-3.6891-10.29447Zm-46.31119,22.29876l51.0497-37.08794c-.80383-1.15896-1.70163-2.38208-2.72103-3.70381l-10.07318,7.31889-6.68887-8.6489-34.38477,38.27326c1.04546,1.19677,1.99142,2.4873,2.81815,3.84851Zm54.53587,12.03874l-.3269-10.92912-50.31456,10.75324c.14766,1.63412.15477,3.14328.015,4.77078h63.07639c.05606-1.5289.05448-3.06925,0-4.5949h-12.44993ZM132.6401,13.69512c-1.3313-.46528-2.77472-.92721-4.37607-1.39901l-3.85334,11.85791-10.49562-3.06432-5.31967,51.17011c1.54529.3501,3.06767.83838,4.54268,1.45813l19.50202-60.02283Zm-19.33936,110.94313c-1.46869.62794-2.98555,1.12777-4.53242,1.491l19.49571,60.00151c1.58792-.46686,3.03135-.92879,4.37607-1.39901l-3.85808-11.87766,10.2919-3.69068-25.77318-44.52517Zm-10.86201,2.22426c-.75646,0-1.51449-.03287-2.29779-.10028v63.07738c.76277.02625,1.52712.04925,2.29779.04925.76909,0,1.53344-.023,2.297-.04925v-12.44973l10.92912-.3272-10.75383-50.31525c-.84963.07728-1.66531.11509-2.4723.11509Zm70.75386,7.4094l-47.025-20.87517c-.81726,1.36782-1.75375,2.66329-2.79288,3.86993l51.03232,37.07313c1.02966-1.33327,1.91325-2.53497,2.72024-3.70055l-10.09371-7.33379,6.15903-9.03354Zm-52.56971-14.23684c-1.19548,1.04398-2.48572,1.98757-3.84861,2.81618l37.08922,51.05177c1.156-.80067,2.35859-1.68515,3.70253-2.72083l-7.31898-10.07416,8.64949-6.68768-38.27365-34.38527Zm59.94081-9.34426l-51.17209-5.31986c-.35059,1.54529-.83858,3.06767-1.45843,4.54229l60.02293,19.50232c.47061-1.34146.93254-2.78647,1.4-4.37617l-11.85851-3.85354,3.06609-10.49503Z" fill="#4361ee"/><g><path d="m223.79898,155.71174V52.1704h39.79135c7.78916,0,14.98717,1.3313,21.59645,3.99391,6.60443,2.66261,12.37302,6.33672,17.30575,11.01991,4.93031,4.6844,8.80187,10.18285,11.61227,16.49292,2.8104,6.31128,4.2156,13.11559,4.2156,20.41172,0,7.29855-1.38339,14.07743-4.14291,20.33783-2.76194,6.26283-6.63351,11.71161-11.61227,16.34634s-10.774,8.2834-17.37843,10.94601c-6.60928,2.66261-13.80729,3.9927-21.59645,3.9927h-39.79135Zm21.44866-19.08163h18.04711c4.63231,0,8.94724-.83585,12.94237-2.51482,3.9927-1.67412,7.49359-3.9927,10.50265-6.95089,3.00664-2.95819,5.32522-6.38396,6.95089-10.28218,1.62809-3.89337,2.44214-8.15742,2.44214-12.79337,0-4.53298-.81405-8.80066-2.44214-12.79458-1.62567-3.99391-3.94425-7.49237-6.95089-10.50144-3.00906-3.00664-6.50995-5.34824-10.50265-7.02599-3.99513-1.67655-8.2616-2.51482-12.79458-2.51482h-18.1949v65.37809Z" fill="#4361ee"/><path d="m354.55999,157.04184c-5.42455,0-10.25795-1.01029-14.49778-3.03087-4.23982-2.02058-7.54204-4.80675-9.90907-8.35851-2.36703-3.54934-3.54934-7.63895-3.54934-12.27611,0-7.39668,2.75952-13.13861,8.2834-17.23307,5.52146-4.08961,13.21129-6.13927,23.07433-6.13927,6.70377,0,13.01747,1.03694,18.93384,3.1084v-5.6208c0-4.43728-1.38339-7.79037-4.14291-10.05807-2.76194-2.2677-6.8031-3.40276-12.12832-3.40276-3.15685,0-6.65531.51847-10.50265,1.55299-3.84491,1.03573-8.18649,2.63959-13.01747,4.80796l-7.24646-15.08772c6.11261-2.66261,11.92965-4.68198,17.45354-6.06416,5.52146-1.37976,11.04292-2.07146,16.56681-2.07146,10.5511,0,18.68672,2.49181,24.40685,7.47057,5.71771,4.97998,8.57898,12.00597,8.57898,21.07677v49.996h-19.96836v-5.47301c-3.15685,2.36703-6.56082,4.09204-10.20707,5.17743-3.64867,1.08297-7.69225,1.62567-12.12832,1.62567Zm-8.72677-24.10885c0,2.95819,1.27922,5.30099,3.84491,7.02599,2.56328,1.725,5.96483,2.5875,10.20707,2.5875,3.35067,0,6.43242-.39249,9.24524-1.18231,2.8104-.7874,5.3979-2.07146,7.76493-3.84734v-11.24159c-2.46637-1.08297-5.02964-1.84856-7.69225-2.29193s-5.52388-.66626-8.57898-.66626c-4.63716,0-8.2616.8407-10.87333,2.51482-2.61173,1.67897-3.9176,4.046-3.9176,7.1011Z" fill="#4361ee"/><path d="m446.41639,156.89405c-8.48207,0-14.91691-1.94547-19.3021-5.84127-4.39003-3.89579-6.58263-9.54082-6.58263-16.93749v-38.60541h-15.82787v-16.86239h15.82787v-19.67278l20.11615-4.58507v24.25785h22.1876v16.86239h-22.1876v34.31714c0,3.54934.81405,6.08839,2.43972,7.61715,1.62809,1.52876,4.36338,2.29193,8.21072,2.29193,2.07146,0,3.92002-.12114,5.54569-.36826,1.62809-.24712,3.42578-.66626,5.40032-1.25741v16.56681c-2.07146.69049-4.63716,1.23076-7.69225,1.62567-3.05752.39249-5.76858.59115-8.13562.59115Z" fill="#4361ee"/><path d="m497.15375,157.04184c-5.42455,0-10.25795-1.01029-14.49778-3.03087-4.23982-2.02058-7.54204-4.80675-9.90907-8.35851-2.36703-3.54934-3.54934-7.63895-3.54934-12.27611,0-7.39668,2.75952-13.13861,8.2834-17.23307,5.52146-4.08961,13.21129-6.13927,23.07433-6.13927,6.70377,0,13.01747,1.03694,18.93384,3.1084v-5.6208c0-4.43728-1.38339-7.79037-4.14291-10.05807-2.76194-2.2677-6.8031-3.40276-12.12832-3.40276-3.15685,0-6.65531.51847-10.50265,1.55299-3.84491,1.03573-8.18649,2.63959-13.01747,4.80796l-7.24646-15.08772c6.11261-2.66261,11.92965-4.68198,17.45354-6.06416,5.52146-1.37976,11.04292-2.07146,16.56681-2.07146,10.5511,0,18.68672,2.49181,24.40685,7.47057,5.71771,4.97998,8.57898,12.00597,8.57898,21.07677v49.996h-19.96836v-5.47301c-3.15685,2.36703-6.56082,4.09204-10.20707,5.17743-3.64867,1.08297-7.69225,1.62567-12.12832,1.62567Zm-8.72677-24.10885c0,2.95819,1.27922,5.30099,3.84491,7.02599,2.56328,1.725,5.96483,2.5875,10.20707,2.5875,3.35067,0,6.43242-.39249,9.24524-1.18231,2.8104-.7874,5.3979-2.07146,7.76493-3.84734v-11.24159c-2.46637-1.08297-5.02964-1.84856-7.69225-2.29193s-5.52388-.66626-8.57898-.66626c-4.63716,0-8.2616.8407-10.87333,2.51482-2.61173,1.67897-3.9176,4.046-3.9176,7.1011Z" fill="#4361ee"/><path d="m558.24114,155.71174V52.1704h11.38938v103.54135h-11.38938Z" fill="#4361ee"/><path d="m590.34024,155.71174v-74.10607h10.94601v8.72798c5.81704-6.80431,13.60862-10.20707,23.37233-10.20707,5.6208,0,10.57533,1.20896,14.86603,3.62444,4.28828,2.41791,7.63895,5.76858,10.05686,10.05807,2.41549,4.28949,3.62444,9.29612,3.62444,15.01261v46.89003h-10.79823v-44.67079c0-6.60686-1.84856-11.8073-5.54569-15.60498-3.69955-3.79404-8.75342-5.69469-15.16161-5.69469-4.43849,0-8.38274.98727-11.83517,2.95819-3.45243,1.97455-6.31128,4.78494-8.57898,8.43119v54.58107h-10.94601Z" fill="#4361ee"/><path d="m679.97739,155.71174v-64.78693h-17.45354v-9.31913h17.45354v-14.05199c0-7.29613,1.97212-12.86847,5.91637-16.7146s9.61592-5.76858,17.0126-5.76858c1.9697,0,3.74558.09933,5.3228.29558,1.57721.19867,3.1084.5427,4.58628,1.03573v9.7625c-1.67655-.49182-3.20531-.8625-4.58628-1.10962-1.38097-.2447-2.90973-.36947-4.58386-.36947-4.34158,0-7.56869,1.06117-9.6886,3.17987-2.12233,2.12233-3.18108,5.44999-3.18108,9.98418v13.75641h22.03982v9.31913h-22.03982v64.78693h-10.79823Z" fill="#4361ee"/><path d="m724.64817,155.71174v-74.10607h10.94601v10.50265c2.2677-3.84613,5.1532-6.82733,8.65409-8.94966,3.49846-2.1187,7.51781-3.17987,12.05564-3.17987,2.56328,0,4.88185.34645,6.95089,1.03573v10.05807c-1.28164-.49182-2.5657-.83585-3.84491-1.03573-1.28164-.19624-2.5657-.29558-3.84491-.29558-4.53782,0-8.5063,1.30829-11.90785,3.92002-3.40155,2.61415-6.09081,6.38639-8.06293,11.31548v50.73495h-10.94601Z" fill="#4361ee"/><path d="m795.50411,157.04184c-5.42455,0-10.18285-.93761-14.27488-2.8104-4.09204-1.87037-7.29734-4.48452-9.6135-7.83762-2.31858-3.3531-3.47666-7.24889-3.47666-11.68738,0-6.99934,2.66261-12.52081,7.98783-16.56681,5.32522-4.04116,12.52081-6.06416,21.59645-6.06416,7.98783,0,15.23429,1.67897,21.74424,5.02964v-9.76371c0-5.91516-1.67897-10.37546-5.02964-13.38452-3.35552-3.00664-8.23495-4.51117-14.64556-4.51117-3.64867,0-7.32157.51726-11.0187,1.55299s-7.76493,2.68805-12.20342,4.95575l-4.14291-8.43119c5.32522-2.56328,10.25553-4.43849,14.79335-5.6208,4.5354-1.18352,9.0708-1.77588,13.60862-1.77588,9.36638,0,16.58861,2.21925,21.66913,6.65652,5.0781,4.43728,7.61715,10.79823,7.61715,19.08042v49.84822h-10.64802v-7.24889c-3.35552,2.86128-7.02842,5.00784-11.02112,6.43484-3.9927,1.42943-8.30763,2.14414-12.94237,2.14414Zm-16.86239-22.63097c0,4.14291,1.74923,7.52024,5.25011,10.13197,3.49846,2.61415,8.01206,3.92002,13.53594,3.92002,4.43607,0,8.47965-.68806,12.12832-2.06903,3.64625-1.38097,6.95089-3.55176,9.9115-6.50995v-13.9042c-3.05994-2.07146-6.3137-3.57357-9.76371-4.51117-3.45243-.93518-7.34822-1.4052-11.68495-1.4052-5.91637,0-10.62863,1.30829-14.12709,3.92002-3.50088,2.61415-5.25011,6.09081-5.25011,10.42754Z" fill="#4361ee"/></g></svg>